<svg xmlns="http://www.w3.org/2000/svg" width="80" height="80" viewBox="0 0 80 80"><path fill="#575757" d="M33.72 44a4.15 4.15 0 0 1-4.11 4.19 4.15 4.15 0 0 1-4.1-4.19 4.14 4.14 0 0 1 4.1-4.18c2.27 0 4.1 1.87 4.1 4.18zm20.78 0a4.15 4.15 0 0 1-4.11 4.19 4.15 4.15 0 0 1-4.1-4.19 4.14 4.14 0 0 1 4.1-4.18A4.14 4.14 0 0 1 54.5 44zM80 41.67v7.95c0 4-3.18 7.23-7.1 7.23h-5.15C62.65 71.28 49.62 80 40 80c-9.62 0-22.65-8.72-27.75-23.15H7.1A7.16 7.16 0 0 1 0 49.62v-7.95c0-2.75 1.5-5.13 3.72-6.36.08-11.29 3.3-20.1 9.62-26.2C19.59 3.07 28.57 0 40 0s20.41 3.07 26.66 9.11c6.32 6.1 9.55 14.91 9.62 26.2A7.24 7.24 0 0 1 80 41.67zm-15.02 2.36c0-1.86-.09-3.61-.23-5.3-3.15-2.94-8.87-5.16-16.08-5.99a10.74 10.74 0 0 1 2.26 4.39c-4.42-3.55-13.1-2.7-19.66-10.64-.38-.44-.7-.86-.98-1.25l-.01-.01c-1.17-1.61-1.57-2.57-1.59-1.51-.2 9.12-6.54 16.23-13.59 17.24-.04 1-.08 2.01-.08 3.07 0 3.86.62 7.37 1.67 10.54 3.96 4.86 10.5 6.24 16.28 6.6 1.08-1.74 3.49-2.96 6.3-2.96 3.8 0 6.89 2.24 6.89 4.99s-3.09 4.98-6.9 4.98c-2.92 0-5.42-1.32-6.41-3.18-4.05-.24-8.5-.95-12.46-2.85C25.96 70.52 34.6 74.94 40 74.94c8.48 0 24.98-10.91 24.98-30.91zM40 4.34c-20.52 0-31.56 10.4-32 30.1h2.72c1-6.64 3.11-12.1 6.32-16.3C22.14 11.45 29.87 8.06 40 8.06s17.86 3.39 22.97 10.08c3.2 4.2 5.31 9.66 6.31 16.3h2.73C71.56 14.74 60.52 4.34 40 4.34z"/></svg>