<svg xmlns="http://www.w3.org/2000/svg" width="77" height="77" viewBox="0 0 77 77"><path fill="#575757" d="M48.7 56.57v-7.36l-.86-.46-4.55-1.9v8.99H5.42V5.88h23.4v10.4a3.58 3.58 0 0 0 3.62 3.54l5.38-.03a14.67 14.67 0 0 1 9.38-4.7c.06-.04.14-.06.2-.09a9.03 9.03 0 0 0-1.32-1.72L35.54 2.66A9.02 9.02 0 0 0 29.17 0H4.73A4.77 4.77 0 0 0 .01 4.86v51.71a4.71 4.71 0 0 0 4.72 4.79h39.1a4.83 4.83 0 0 0 4.87-4.79zM34.48 9.6l4.77 4.79h-.01l-4.76-.03zM34 28.17c.22-1.88.79-3.76 1.71-5.51h-7.46a2.76 2.76 0 0 0 0 5.51zM9.33 35.81c0 1.52 1.23 3 2.76 3h24.3a23.95 23.95 0 0 1-2.08-5.72l-.06-.29H12.09c-1.53 0-2.76 1.49-2.76 3.01zm2.76 13.15h24.45a2.77 2.77 0 0 0 2.77-2.76 2.76 2.76 0 0 0-2.77-2.75H12.09a2.76 2.76 0 1 0 0 5.51zm62.5-4.57l2.4.77v-4.03s-7.48-2.14-7.68-2.06c-2.43-6.71-7.97-9.11-9.92-10.76-.5-.45-.94-.98-1.31-1.57-1.8-2.84-5.15-8.13-11.62-6.63A9.9 9.9 0 0 0 39.04 32c1.16 4.93 3.38 7.77 6.74 10.66l7.9 3.29c0-.18.04-.35.02-.53-.17-1.94-1.43-3.85-3.86-5.83-3.28-2.67-5-4.65-5.96-8.72a5.06 5.06 0 0 1 3.72-5.94c2-.47 2.8.64 6.28 4.46.99 1.08 1.99 2 2.98 2.79 1.16 1.24 6.1 3.23 7.76 9.54-.12 4.35.34 8.64-.84 14.02-1.03 4.7-4.05 8.74-5.96 11.13-1.38 1.72-3.94 3.27-5.53 2.76l-14.95-4.78H26.05a10.43 10.43 0 0 0 4.63 3.03L59.25 77h17.74V50.78l-4.07-1.31a2.67 2.67 0 1 1 1.66-5.08zM22.4 12.71a2.2 2.2 0 0 0-2.2-2.2h-8.68a2.2 2.2 0 0 0-2.2 2.2v11.51c0 1.21.98 2.2 2.2 2.2h8.67a2.2 2.2 0 0 0 2.21-2.2z"/></svg>