<svg xmlns="http://www.w3.org/2000/svg" width="74" height="78" viewBox="0 0 74 78"><path fill="#575757" d="M70.7 43.59a13.54 13.54 0 0 0 2.3-7.64c0-3.22-1.18-6.01-3.56-8.39A11.55 11.55 0 0 0 61 24h-8.25c1.5-3.1 2.25-6.1 2.25-9 0-3.66-.54-6.57-1.64-8.72a10.31 10.31 0 0 0-4.78-4.76A15.96 15.96 0 0 0 41.5 0c-1.6 0-3 .57-4.22 1.73-1.34 1.31-2.31 3-2.9 5.06a66.57 66.57 0 0 0-1.43 5.93c-.36 1.89-.92 3.23-1.67 4.01a92.04 92.04 0 0 0-5.02 6c-3.15 4.1-5.3 6.52-6.42 7.27H7a5.8 5.8 0 0 0-4.25 1.76A5.77 5.77 0 0 0 1 36v30c0 1.66.6 3.07 1.76 4.24A5.75 5.75 0 0 0 7 72h13.5c.68 0 2.84.63 6.47 1.88 3.84 1.34 7.22 2.37 10.15 3.07A38 38 0 0 0 46 78h6.05c4.4 0 7.95-1.25 10.64-3.77 2.69-2.52 4.02-5.95 3.99-10.29a13.21 13.21 0 0 0 2.8-8.35c0-.68-.04-1.35-.13-2.01a13.44 13.44 0 0 0 1.36-9.99zM12.1 65.11c-.59.6-1.3.89-2.1.89-.82 0-1.52-.29-2.11-.89-.6-.59-.9-1.3-.9-2.11 0-.81.3-1.51.9-2.11a2.9 2.9 0 0 1 2.1-.89c.82 0 1.52.3 2.12.89.59.6.89 1.3.89 2.11 0 .81-.3 1.52-.9 2.11zM66 39.8c-.67 1.44-1.51 2.17-2.51 2.2.47.53.86 1.28 1.17 2.23a7.4 7.4 0 0 1-2.02 8.18c.57 1 .85 2.08.85 3.23a7.9 7.9 0 0 1-.82 3.45 5.23 5.23 0 0 1-2.23 2.46c.16.94.24 1.81.24 2.62 0 5.22-3 7.83-9 7.83H46c-4.1 0-9.44-1.14-16.03-3.42l-1.36-.49-1.67-.59-1.64-.54a24.07 24.07 0 0 0-3.33-.82A9.92 9.92 0 0 0 20.5 66H19V36h1.5c.5 0 1.05-.14 1.66-.42a7.7 7.7 0 0 0 1.88-1.27 28.81 28.81 0 0 0 3.68-3.72 92.91 92.91 0 0 0 3.1-3.92l1.07-1.4A80.27 80.27 0 0 1 35.5 21a11.85 11.85 0 0 0 2.79-5.13 84.41 84.41 0 0 0 1.43-5.89c.37-1.84.97-3.17 1.78-3.98 3 0 5 .73 6 2.2 1 1.47 1.5 3.74 1.5 6.8 0 1.84-.75 4.35-2.25 7.52S44.5 28.19 44.5 30H61c1.57 0 2.96.6 4.18 1.8A5.75 5.75 0 0 1 67 36c0 1.09-.34 2.36-1.01 3.8z"/></svg>