<svg xmlns="http://www.w3.org/2000/svg" width="88" height="50" viewBox="0 0 88 50"><path fill="#575757" d="M43.18 44.65c1.77-.41 25.22-2.88 25.22-2.88l.34-.8c-1.87-.92-7.42-2.11-13.03-3.09l.67-2.69-1.14-3.84-6.76-1.29-2.52 2.64-.52 3.6a67.1 67.1 0 0 0-2.34-.27c-1.56-.14-4.05-.3-6.8-.45l7.79-24.09c4.73-8.08 13.3-9.41 13.3-9.41-8.2-.59-12.9 4.89-14.09 5.76-.06.01-.68.69-1.87.35-.7-.16-1.13-.62-.5-1.6 1.9-3 8.2-5.59 8.2-5.59-6.34-.08-10 5.24-10.55 5.9-.55.67-1.64 1.32-2.57 1.01-.48-.15-.76-.71-.42-1.33.6-1.1 2.96-3.49 2.96-3.49-5.92 2.24-9.15 8.43-9.15 8.43L20.94 34.9h-3.12L0 37.63v2.89s37.23 3.94 38.08 4.1c.84.17 3.32.45 5.1.03zm42.4 1.79c.9-1.64 1.75-3.81 1.34-4.18-.4-.37-4.39-2.05-4.39-2.05s.81-5.42.81-9.25-2.87-11.45-6.6-16.44c-3.71-4.99-8.1-8.66-14.2-9.82-6.08-1.17-9.38.75-14.7 6.66-5.33 5.9-8.52 22.97-8.52 22.97l3.5.26.86-3.94 3.45-3.29 10.04 1.47 1.87 4.79-.28 1.7c4.06.5 13.42 3.08 13.42 3.08.02.61-.63 3.5-.63 3.5s12.47 0 14.03 4.54zm-8.85-1.69c-9.82-1.04-24.27.47-24.27.47 6.94 3.04 24.68 3.91 27.3 3.77 2.61-.15 4.38-.33 4.07-1.39 0 0 .7-2.02-7.1-2.85zM17.5 32.1l1.67.32 6.85-19.58h-.26c-3.5 2.89-6.2 8.91-7.84 13.57l-.1.02-2.44.52-.44 4.77v.66l2.56-.34z"/></svg>