<svg xmlns="http://www.w3.org/2000/svg" width="45" height="79" viewBox="0 0 45 79"><path fill="#575757" d="M45 18.08V8.8C45 5.69 34.93 0 22.5 0S0 5.69 0 8.8v9.28c0 8.45 15.58 15.44 15.58 21.42C15.58 45.48 0 52.47 0 60.92v9.28C0 73.31 10.07 79 22.5 79S45 73.31 45 70.2v-9.28c0-8.45-15.58-15.44-15.58-21.42C29.42 33.52 45 26.53 45 18.08zM6.19 9.2c2.8-1.74 8.04-4.28 16.53-4.28 8.5 0 16.1 4.28 16.1 4.28.56.34 2.8 1.51 1.27 2.4-3.37 1.97-9.96 4.03-17.59 4.03-7.63 0-14-2.28-17.37-4.24C3.6 10.5 6.19 9.2 6.19 9.2zm18.32 30.3c0 4.71 4 7.75 8.24 11.8 3.1 2.96 7.34 7.01 7.34 9.62v5.24c-3.9-1.9-15.55-3.77-15.55-9.88 0-3.1-4.08-3.1-4.08 0 0 6.11-11.66 7.98-15.55 9.88v-5.24c0-2.61 4.24-6.66 7.34-9.62 4.23-4.05 8.24-7.09 8.24-11.8 0-4.71-4-7.75-8.25-11.8-3.1-2.96-7.33-7.01-7.33-9.62l-.2-3.95A39.68 39.68 0 0 0 22.5 18.4c7.12 0 13.69-2.09 17.81-4.27l-.22 3.95c0 2.61-4.24 6.67-7.34 9.62-4.23 4.05-8.24 7.09-8.24 11.8z"/></svg>